HIERARCHY
ROOT pelvis
{
  OFFSET 0 100 0
  CHANNELS 6 Xposition Yposition Zposition Zrotation Xrotation Yrotation
  JOINT pelvis_right_femur
  {
    OFFSET -10.78128 -3.44521 -0.5502486
    CHANNELS 3 Zrotation Xrotation Yrotation
    JOINT right_femur_tibia
    {
      OFFSET -0.8047443 -44.0398 -0.1307829
      CHANNELS 3 Zrotation Xrotation Yrotation
      JOINT right_tibia_foot
      {
        OFFSET 3.006224 -47.83518 -5
        CHANNELS 3 Zrotation Xrotation Yrotation
        End Site
        {
          OFFSET 0 -5 15
        }
      }
    }
  }
  JOINT pelvis_left_femur
  {
    OFFSET 10.78128 -3.44521 -0.5502486
    CHANNELS 3 Zrotation Xrotation Yrotation
    JOINT left_femur_tibia
    {
      OFFSET 0.8047443 -44.0398 -0.1307829
      CHANNELS 3 Zrotation Xrotation Yrotation
      JOINT left_tibia_foot
      {
        OFFSET -4.370144 -48.10324 -4.275266
        CHANNELS 3 Zrotation Xrotation Yrotation
        End Site
        {
          OFFSET 0 -5 15
        }
      }
    }
  }
  JOINT pelvis_spine1
  {
    OFFSET 0 6.468898 -3.129235
    CHANNELS 3 Zrotation Xrotation Yrotation
    JOINT spine1
    {
      OFFSET 0 23.15396 4.99043
      CHANNELS 3 Zrotation Xrotation Yrotation
      JOINT spine2
      {
        OFFSET 0 20.79997 -5.064912
        CHANNELS 3 Zrotation Xrotation Yrotation
        JOINT neck
        {
          OFFSET 0 14.38658 9.616178
          CHANNELS 3 Zrotation Xrotation Yrotation
          End Site
          {
            OFFSET 0 20 0
          }
        }
      }
      JOINT right_manubrium
      {
        OFFSET -5.722621 16.35077 3.967754
        CHANNELS 3 Zrotation Xrotation Yrotation
        JOINT right_clavicle
        {
          OFFSET -13.16364 1.694482 -4.693211
          CHANNELS 3 Zrotation Xrotation Yrotation
          JOINT right_humerus
          {
            OFFSET -28.5034 -0.3100689 -2.792744
            CHANNELS 3 Zrotation Xrotation Yrotation
            JOINT right_radius
            {
              OFFSET -25.15693 0.02248979 -1.271978
              CHANNELS 3 Zrotation Xrotation Yrotation
              End Site
              {
                OFFSET -15 0 0
              }
            }
          }
        }
      }
      JOINT left_manubrium
      {
        OFFSET 5.722621 16.35077 3.967754
        CHANNELS 3 Zrotation Xrotation Yrotation
        JOINT left_clavicle
        {
          OFFSET 13.16364 1.694482 -4.693211
          CHANNELS 3 Zrotation Xrotation Yrotation
          JOINT left_humerus
          {
            OFFSET 29.39168 -1.063119 -2.237045
            CHANNELS 3 Zrotation Xrotation Yrotation
            JOINT left_radius
            {
              OFFSET 24.59957 -0.9528479 0.9047498
              CHANNELS 3 Zrotation Xrotation Yrotation
              End Site
              {
                OFFSET 15 -0 -0
              }
            }
          }
        }
      }
    }
  }
}
MOTION
Frames: 10
Frame Time: 0.0416666666667
0 103.5113 0 0.6509241 -1.443489 0.1828308 3.785274 -14.93438 8.463793 2.612484e-07 36.59164 -1.453416e-06 -6.756564 -18.29712 -3.372746 -6.860533 5.941583 -22.79162 -2.949853e-06 5.754375 -9.982368e-07 6.354403 -17.97204 25.50021 -3.494591 -2.030058 4.63719 2.208796 8.704731 -7.161179 1.206767 22.6355 6.815639 2.957422 -24.14063 9.222076 5.892932 -20.30139 11.51554 84.2572 35.65033 -16.62434 8.955597e-08 -3.891983e-08 17.58123 -6.63297 7.861273 4.774514 5.125721 -18.67309 -1.593715 -95.77462 29.99379 24.94563 -5.524007e-07 -2.340641e-07 -15.01556 3.741405 17.65429 9.89302
0.383931 103.4343 1.12806 0.6216562 -1.37314 0.4444721 3.853133 -16.60748 8.692136 -1.396969e-07 38.61606 -1.056073e-06 -6.379256 -17.1797 -3.670442 -6.882304 7.87903 -22.89621 -2.828156e-06 5.539994 -6.658691e-07 6.350064 -18.34991 25.13546 -3.512526 -2.170681 4.445533 2.272214 8.84602 -7.443588 1.182485 22.47279 6.921319 2.95434 -24.2251 9.331716 6.068854 -20.12839 11.52785 85.00827 35.62433 -17.57837 7.50017e-08 6.36312e-09 17.30096 -6.645687 8.193765 4.683216 5.085382 -18.88259 -1.723015 -95.46254 29.97324 24.54612 -5.86988e-07 -2.00932e-07 -15.58729 3.681404 17.4267 10.08601
0.7586514 103.4203 2.420499 0.5627814 -1.122163 0.7758234 3.968879 -18.51278 8.651275 -5.5004e-07 39.00266 -6.148777e-07 -6.172212 -16.02522 -3.838929 -6.829421 9.722745 -22.77799 -2.471317e-06 5.346737 -3.856137e-07 6.222853 -18.78847 24.59016 -3.495986 -2.282704 4.232701 2.378254 8.939196 -7.754527 1.124727 22.30128 7.044497 2.990317 -24.38615 9.387908 6.160742 -19.8984 11.52552 85.7909 35.67565 -18.62742 2.414247e-08 3.150766e-08 16.76373 -6.768025 8.50605 4.663689 5.154529 -19.25444 -1.848522 -94.91122 29.84906 23.81384 -5.69307e-07 -1.662508e-07 -16.56904 3.823479 17.21497 10.02263
1.109064 103.41 3.942762 0.4682796 -0.6596871 1.15317 4.108819 -20.54214 8.332335 -9.200409e-07 37.75201 -1.815022e-07 -6.148541 -14.80787 -3.835426 -6.722622 11.35229 -22.42884 -1.872827e-06 5.214833 -1.551874e-07 5.954993 -19.24428 23.85305 -3.445386 -2.368617 4.013652 2.525813 8.981264 -8.084686 1.023926 22.11026 7.194794 3.077073 -24.65055 9.383413 6.186233 -19.62075 11.51519 86.54812 35.85754 -19.72553 -6.424736e-08 3.644171e-08 15.97851 -7.010757 8.795603 4.743084 5.3218 -19.77157 -1.955569 -94.145 29.61462 22.81634 -4.871951e-07 -1.287708e-07 -17.92388 4.154705 17.00523 9.727834
1.418875 103.32 5.750403 0.345223 -0.04000576 1.547474 4.267474 -22.66176 7.78013 -1.208359e-06 34.78856 2.12864e-07 -6.24748 -13.71467 -3.710768 -6.558357 12.72162 -21.84539 -1.064896e-06 5.141302 -1.350698e-08 5.540519 -19.73082 22.97189 -3.362765 -2.413623 3.807417 2.707997 8.969736 -8.427432 0.8962778 21.92703 7.354574 3.193442 -24.97203 9.329277 6.134703 -19.31055 11.49944 87.33452 36.12011 -20.87655 -1.897164e-07 3.424186e-08 15.01754 -7.384795 9.087269 4.909686 5.59496 -20.42761 -2.041988 -93.24426 29.28167 21.55869 -3.605937e-07 -9.266085e-08 -19.66331 4.628624 16.7879 9.248815
1.681763 103.1135 7.866568 0.19444 0.6825621 1.936508 4.411773 -24.59173 7.072444 -1.361446e-06 30.82127 4.918939e-07 -6.481199 -12.69401 -3.455974 -6.375551 13.73101 -21.11905 -1.87049e-07 5.286833 5.089844e-08 5.00992 -20.11965 21.9955 -3.25217 -2.427104 3.622 2.901195 8.907472 -8.737653 0.7497766 21.73417 7.512433 3.334031 -25.32847 9.225708 6.04173 -18.97063 11.47207 87.94366 36.46851 -21.91076 -3.254478e-07 2.025006e-08 13.94274 -7.797904 9.325734 5.13061 5.903126 -21.1004 -2.091785 -92.22993 28.89157 20.2224 -1.943092e-07 -6.249976e-08 -21.4786 5.178708 16.56771 8.662271
1.896908 102.7748 10.3451 -0.003194993 1.443948 2.306978 4.564314 -26.32522 6.310267 -1.403735e-06 26.35691 6.860661e-07 -6.773881 -11.73247 -3.173871 -6.148592 14.56876 -20.29582 6.975444e-07 5.685167 6.340481e-08 4.283145 -20.37848 20.89256 -3.092875 -2.415384 3.434864 3.094592 8.78839 -9.012952 0.6149745 21.5408 7.64348 3.462703 -25.67646 9.106283 5.909504 -18.59167 11.41337 88.47808 36.80879 -22.84162 -4.520859e-07 1.846827e-09 12.82751 -8.223556 9.556014 5.385555 6.212862 -21.72292 -2.103755 -91.22127 28.46857 18.89366 -1.49169e-08 -3.787764e-08 -23.21435 5.724368 16.31949 8.086494
2.076869 102.3457 13.26764 -0.258805 2.112923 2.656781 4.754719 -27.59931 5.665174 -1.325588e-06 22.44357 7.72681e-07 -7.050613 -10.78095 -2.979873 -5.877875 15.30738 -19.47485 1.406455e-06 6.650897 4.442954e-08 3.2763 -20.36554 19.68652 -2.862808 -2.385076 3.242075 3.256871 8.625971 -9.218386 0.5333956 21.38284 7.71632 3.542594 -25.9662 9.014082 5.76652 -18.18335 11.31431 89.03201 37.03539 -23.60424 -5.255359e-07 -1.940176e-08 11.8049 -8.618976 9.810596 5.649467 6.439441 -22.16017 -2.077176 -90.48083 28.08032 17.82955 1.474266e-07 -1.579896e-08 -24.49789 6.134712 16.03181 7.716449
2.247389 101.9403 16.72971 -0.5918294 2.638554 2.991653 5.039421 -28.1833 5.275716 -1.124777e-06 19.88426 7.288057e-07 -7.293928 -9.717462 -2.910736 -5.567376 15.95173 -18.72057 1.792514e-06 8.551028 -1.213053e-09 1.962839 -19.88769 18.35985 -2.533595 -2.364148 3.049896 3.374905 8.448582 -9.337078 0.5151307 21.22556 7.71363 3.557459 -26.19572 8.954666 5.655128 -17.76001 11.17705 89.52085 37.12286 -24.11852 -5.162213e-07 -3.735615e-08 10.95417 -8.90088 10.10408 5.889525 6.489476 -22.3081 -2.014958 -90.07789 27.75668 17.26796 2.816716e-07 1.402396e-08 -25.02906 6.331324 15.6884 7.672684
2.43691 101.7013 20.74656 -0.9444199 2.91969 3.310722 5.390977 -27.89643 5.177066 -7.961495e-07 19.12752 5.091312e-07 -7.507041 -8.535173 -2.936239 -5.283013 16.31743 -18.0765 1.724881e-06 11.62005 -9.360845e-08 0.5493072 -18.89076 17.0893 -2.1443 -2.353928 2.900773 3.425672 8.320539 -9.343369 0.5502773 21.06951 7.638555 3.521504 -26.32639 8.904329 5.603871 -17.3497 11.03451 89.76552 37.07823 -24.29726 -4.143554e-07 -5.348929e-08 10.29929 -9.041007 10.38139 6.053666 6.322832 -22.15665 -1.952291 -89.92113 27.51045 17.24084 3.83667e-07 5.137824e-08 -24.7262 6.317055 15.31655 7.915246
